<?xml version="1.0" encoding="UTF-8" standalone="no"?>
<svg
   xmlns:dc="http://purl.org/dc/elements/1.1/"
   xmlns:cc="http://creativecommons.org/ns#"
   xmlns:rdf="http://www.w3.org/1999/02/22-rdf-syntax-ns#"
   xmlns:svg="http://www.w3.org/2000/svg"
   xmlns="http://www.w3.org/2000/svg"
   xmlns:sodipodi="http://sodipodi.sourceforge.net/DTD/sodipodi-0.dtd"
   xmlns:inkscape="http://www.inkscape.org/namespaces/inkscape"
   height="512px"
   id="Layer_1"
   style="enable-background:new 0 0 512 512;"
   version="1.1"
   viewBox="0 0 512 512"
   width="512px"
   xml:space="preserve"
   sodipodi:docname="infinite_1.svg"
   inkscape:version="1.0alpha2 (1:0.92.0+devel+201907061912+dc0366d)"
   inkscape:export-filename="/home/sun/Downloads/Browse/infinite_1.svg.png"
   inkscape:export-xdpi="4.5"
   inkscape:export-ydpi="4.5">
  <metadata
   id="metadata9">
    <rdf:RDF>
      <cc:Work
   rdf:about="">
        <dc:format>image/svg+xml</dc:format>



        <dc:type
   rdf:resource="http://purl.org/dc/dcmitype/StillImage" />



      </cc:Work>



    </rdf:RDF>



  </metadata>



  <defs
   id="defs7" />



  <sodipodi:namedview
   pagecolor="#ffffff"
   bordercolor="#666666"
   inkscape:document-rotation="0"
   borderopacity="1"
   objecttolerance="10"
   gridtolerance="10"
   guidetolerance="10"
   inkscape:pageopacity="0"
   inkscape:pageshadow="2"
   inkscape:window-width="640"
   inkscape:window-height="480"
   id="namedview5"
   showgrid="false"
   inkscape:zoom="1.0625"
   inkscape:cx="189.39884"
   inkscape:cy="338.07886"
   inkscape:current-layer="Layer_1" />



  <path
   inkscape:export-ydpi="8.3546209"
   inkscape:export-xdpi="8.3546209"
   d="m 215.3,199.4 c -16.7,-15 -39,-23.3 -62.6,-23.3 -23.6,0 -45.9,8.3 -62.6,23.3 -16.8,15 -26.1,35.1 -26.1,56.6 0,21.5 9.3,41.6 26.1,56.7 16.7,15 39,23.3 62.6,23.3 23.6,0 45.9,-8.3 62.6,-23.3 28.58438,-24.72515 37.10645,-23.43436 9.2,-48.6 l -31,27.9 c -10.8,9.7 -25.3,15.1 -40.7,15.1 -15.4,0 -29.9,-5.4 -40.7,-15.1 -10.7,-9.6 -16.6,-22.4 -16.6,-36 0,-13.6 5.9,-26.4 16.6,-36.1 10.8,-9.7 25.3,-15.1 40.7,-15.1 15.4,0 29.9,5.4 40.7,15.1 43.76759,43.02178 31.88029,35.66995 46.34595,42.84267 10.23054,5.07276 27.67938,-2.54434 27.27262,-10.12017 C 266.58242,242.63711 256.02903,240.66106 215.3,199.4 Z"
   id="path2"
   inkscape:connector-curvature="0"
   sodipodi:nodetypes="cscscscccscscscssc"
   style="fill:#ff0000" />



  <path
   inkscape:export-ydpi="8.3546209"
   inkscape:export-xdpi="8.3546209"
   id="path2-3"
   d="m 411.82437,198.43095 c -16.7,-15 -39,-23.3 -62.6,-23.3 -23.6,0 -45.9,8.3 -62.6,23.3 l -31.6,28.5 c 26.38996,27.06938 28.82685,16.23061 53.5,-7.8 10.8,-9.7 25.3,-15.1 40.7,-15.1 15.4,0 29.9,5.4 40.7,15.1 10.7,9.6 16.6,22.4 16.6,36.1 0,13.6 -5.9,26.4 -16.6,36 -10.8,9.7 -25.3,15.1 -40.7,15.1 -15.4,0 -29.9,-5.4 -40.7,-15.1 -55.86535,-49.00236 -33.79298,-35.36965 -46.80479,-38.99624 -7.91154,-2.20506 -28.14669,-2.53142 -29.192,4.39966 -1.31931,8.7479 12.04663,17.2716 54.19679,55.09658 16.7,15 39,23.3 62.6,23.3 23.6,0 45.9,-8.3 62.6,-23.3 16.8,-15.1 26.1,-35.2 26.1,-56.7 -0.1,-21.4 -9.4,-41.5 -26.2,-56.6 z"
   inkscape:connector-curvature="0"
   sodipodi:nodetypes="cscccscscscsscsccc"
   style="fill:#daa520" />



</svg>
