<?xml version="1.0" standalone="no"?><!DOCTYPE svg PUBLIC "-//W3C//DTD SVG 1.1//EN" "http://www.w3.org/Graphics/SVG/1.1/DTD/svg11.dtd"><svg t="1562249090117" class="icon" viewBox="0 0 1024 1024" version="1.1" xmlns="http://www.w3.org/2000/svg" p-id="3122" xmlns:xlink="http://www.w3.org/1999/xlink" width="200" height="200"><defs><style type="text/css"></style></defs><path d="M733.866667 347.733333c-17.066667 10.666667-36.266667 17.066667-55.466667 21.333333-14.933333-17.066667-38.4-27.733333-64-27.733333-49.066667 0-87.466667 38.4-87.466667 85.333333 0 6.4 0 12.8 2.133333 19.2-72.533333-4.266667-136.533333-38.4-181.333333-89.6-8.533333 12.8-12.8 27.733333-12.8 42.666667 0 29.866667 14.933333 55.466667 38.4 72.533333-14.933333 0-27.733333-4.266667-40.533333-10.666667 0 0 0 0 0 2.133333 0 42.666667 29.866667 76.8 70.4 85.333333-6.4 2.133333-14.933333 2.133333-23.466667 2.133333-6.4 0-10.666667 0-17.066667-2.133333 10.666667 34.133333 42.666667 59.733333 81.066667 59.733333-29.866667 23.466667-68.266667 36.266667-108.8 36.266667-6.4 0-14.933333 0-21.333333-2.133333 38.4 23.466667 85.333333 38.4 134.4 38.4C614.4 682.666667 704 550.4 704 437.333333c0-4.266667 0-6.4 0-10.666667 17.066667-12.8 32-27.733333 42.666667-44.8-14.933333 6.4-32 10.666667-51.2 12.8C714.666667 384 727.466667 366.933333 733.866667 347.733333zM512 42.666667C251.733333 42.666667 42.666667 251.733333 42.666667 512s209.066667 469.333333 469.333333 469.333333 469.333333-209.066667 469.333333-469.333333S772.266667 42.666667 512 42.666667zM512 938.666667C277.333333 938.666667 85.333333 746.666667 85.333333 512 85.333333 277.333333 277.333333 85.333333 512 85.333333s426.666667 192 426.666667 426.666667C938.666667 746.666667 746.666667 938.666667 512 938.666667z" p-id="3123" fill="#2c2c2c"></path></svg>